<svg xmlns="http://www.w3.org/2000/svg" xml:space="preserve" width="39.723" height="39.723"><path d="M19.859 23.836a3.98 3.98 0 0 0 3.977-3.976c0-.864-.281-1.664-.75-2.317a3.98 3.98 0 0 0-3.227-1.656c-1.324 0-2.5.652-3.222 1.656a3.97 3.97 0 0 0-.754 2.317 3.98 3.98 0 0 0 3.976 3.976m8.684-8.84v-3.828h-.5l-3.332.012.016 3.828zm0 0"/><path d="M19.859 0C8.91 0 0 8.911 0 19.86c0 10.953 8.91 19.863 19.859 19.863 10.953 0 19.864-8.91 19.864-19.863C39.723 8.911 30.812 0 19.859 0m11.297 17.543v9.25a4.37 4.37 0 0 1-4.367 4.364H12.93a4.37 4.37 0 0 1-4.364-4.364V12.934a4.37 4.37 0 0 1 4.364-4.367h13.859a4.37 4.37 0 0 1 4.367 4.367zm0 0"/><path d="M26.039 19.86a6.185 6.185 0 0 1-6.18 6.179c-3.406 0-6.175-2.773-6.175-6.179 0-.817.164-1.602.453-2.317h-3.371v9.25a2.16 2.16 0 0 0 2.164 2.161h13.859a2.16 2.16 0 0 0 2.164-2.161v-9.25h-3.371c.289.715.457 1.5.457 2.317m0 0"/></svg>