<?xml version="1.0" encoding="utf-8"?>
<!-- Generator: Adobe Illustrator 17.0.0, SVG Export Plug-In . SVG Version: 6.00 Build 0)  -->
<!DOCTYPE svg PUBLIC "-//W3C//DTD SVG 1.1//EN" "http://www.w3.org/Graphics/SVG/1.1/DTD/svg11.dtd">
<svg version="1.1" id="Layer_1" xmlns="http://www.w3.org/2000/svg" xmlns:xlink="http://www.w3.org/1999/xlink" x="0px" y="0px"
	 width="138px" height="138px" viewBox="0 0 138 138" enable-background="new 0 0 138 138" xml:space="preserve">
<g>
	<path fill="#d89b64" d="M69,0C30.893,0,0,30.893,0,69c0,16.771,5.988,32.141,15.936,44.098l20.876-17.152
		c4.733-3.891,6.608-10.29,4.709-16.118c-2.353-7.22-0.364-15.623,9.207-25.194c0.977-0.977,23.969-23.969,31.316-31.315
		c1.229-1.232,3.229-1.229,4.462,0.005c1.301,1.3,1.301,3.41-0.005,4.715L57.479,57.063c-1.309,1.309-1.308,3.428,0.001,4.737
		c1.308,1.31,3.426,1.31,4.735,0L91.24,32.777c1.306-1.305,3.414-1.306,4.714-0.006l0.028,0.029c1.3,1.299,1.299,3.408-0.005,4.713
		L66.954,66.538c-1.311,1.309-1.311,3.427,0,4.736c1.31,1.31,3.428,1.311,4.736,0.002l29.024-29.024
		c1.306-1.305,3.414-1.305,4.715-0.005l0.027,0.028c1.3,1.299,1.3,3.41-0.005,4.715L76.429,76.013c-1.309,1.31-1.309,3.427,0,4.737
		c1.309,1.309,3.427,1.309,4.736,0l29.024-29.023c1.306-1.306,3.414-1.306,4.715-0.005c1.235,1.234,1.235,3.231,0.002,4.461
		c-7.345,7.346-30.336,30.338-31.313,31.314c-9.57,9.571-17.972,11.561-25.193,9.208c-5.824-1.893-12.227-0.023-16.118,4.71
		l-17.137,20.856C37.067,132.098,52.344,138,69,138c38.107,0,69-30.893,69-69S107.107,0,69,0z"/>
</g>
</svg>
