<svg xmlns="http://www.w3.org/2000/svg" xml:space="preserve" width="138" height="138"><path fill="#d89b64" d="M69 0C30.893 0 0 30.893 0 69c0 16.771 5.988 32.141 15.936 44.098l20.876-17.152a14.9 14.9 0 0 0 4.709-16.118c-2.353-7.22-.364-15.623 9.207-25.194l31.316-31.315a3.154 3.154 0 0 1 4.462.005 3.33 3.33 0 0 1-.005 4.715L57.479 57.063a3.35 3.35 0 0 0 .001 4.737 3.344 3.344 0 0 0 4.735 0L91.24 32.777a3.33 3.33 0 0 1 4.714-.006l.028.029a3.33 3.33 0 0 1-.005 4.713L66.954 66.538a3.343 3.343 0 0 0 0 4.736 3.346 3.346 0 0 0 4.736.002l29.024-29.024a3.333 3.333 0 0 1 4.715-.005l.027.028a3.333 3.333 0 0 1-.005 4.715L76.429 76.013a3.35 3.35 0 0 0 0 4.737 3.347 3.347 0 0 0 4.736 0l29.024-29.023a3.33 3.33 0 0 1 4.715-.005 3.15 3.15 0 0 1 .002 4.461L83.593 87.497c-9.57 9.571-17.972 11.561-25.193 9.208a14.91 14.91 0 0 0-16.118 4.71l-17.137 20.856C37.067 132.098 52.344 138 69 138c38.107 0 69-30.893 69-69S107.107 0 69 0"/></svg>