<svg xmlns="http://www.w3.org/2000/svg" xmlns:xlink="http://www.w3.org/1999/xlink"><symbol id="fb-icon" viewBox="0 0 39.723 39.723">
<g>
	<path d="M19.859,0C8.91,0,0,8.911,0,19.86c0,10.953,8.91,19.863,19.859,19.863c10.953,0,19.864-8.91,19.864-19.863
		C39.723,8.911,30.812,0,19.859,0L19.859,0z M24.801,20.559H21.57v11.52h-4.789v-11.52h-2.277v-4.07h2.277v-2.633
		c0-1.883,0.895-4.832,4.832-4.832l3.547,0.015v3.95h-2.574c-0.422,0-1.016,0.211-1.016,1.109v2.395h3.649L24.801,20.559z
		 M24.801,20.559"/>
</g>
</symbol><symbol id="insta-icon" viewBox="0 0 39.723 39.723">
<g>
	<path d="M19.859,23.836c2.192,0,3.977-1.781,3.977-3.976c0-0.864-0.281-1.664-0.75-2.317c-0.723-1-1.898-1.656-3.227-1.656
		c-1.324,0-2.5,0.652-3.222,1.656c-0.473,0.653-0.75,1.453-0.754,2.317C15.883,22.055,17.668,23.836,19.859,23.836L19.859,23.836z
		 M19.859,23.836"/>
	<path d="M28.543,14.996v-3.828h-0.5l-3.332,0.012l0.016,3.828L28.543,14.996z M28.543,14.996"/>
	<path d="M19.859,0C8.91,0,0,8.911,0,19.86c0,10.953,8.91,19.863,19.859,19.863c10.953,0,19.864-8.91,19.864-19.863
		C39.723,8.911,30.812,0,19.859,0L19.859,0z M31.156,17.543v9.25c0,2.407-1.957,4.364-4.367,4.364H12.93
		c-2.407,0-4.364-1.957-4.364-4.364V12.934c0-2.41,1.957-4.367,4.364-4.367h13.859c2.41,0,4.367,1.957,4.367,4.367V17.543z
		 M31.156,17.543"/>
	<path d="M26.039,19.86c0,3.406-2.769,6.179-6.18,6.179c-3.406,0-6.175-2.773-6.175-6.179c0-0.817,0.164-1.602,0.453-2.317h-3.371
		v9.25c0,1.196,0.968,2.161,2.164,2.161h13.859c1.195,0,2.164-0.965,2.164-2.161v-9.25h-3.371
		C25.871,18.258,26.039,19.043,26.039,19.86L26.039,19.86z M26.039,19.86"/>
</g>
</symbol><symbol id="logo-icon" viewBox="0 0 138 138">
<g>
	<path fill="#d89b64" d="M69,0C30.893,0,0,30.893,0,69c0,16.771,5.988,32.141,15.936,44.098l20.876-17.152
		c4.733-3.891,6.608-10.29,4.709-16.118c-2.353-7.22-0.364-15.623,9.207-25.194c0.977-0.977,23.969-23.969,31.316-31.315
		c1.229-1.232,3.229-1.229,4.462,0.005c1.301,1.3,1.301,3.41-0.005,4.715L57.479,57.063c-1.309,1.309-1.308,3.428,0.001,4.737
		c1.308,1.31,3.426,1.31,4.735,0L91.24,32.777c1.306-1.305,3.414-1.306,4.714-0.006l0.028,0.029c1.3,1.299,1.299,3.408-0.005,4.713
		L66.954,66.538c-1.311,1.309-1.311,3.427,0,4.736c1.31,1.31,3.428,1.311,4.736,0.002l29.024-29.024
		c1.306-1.305,3.414-1.305,4.715-0.005l0.027,0.028c1.3,1.299,1.3,3.41-0.005,4.715L76.429,76.013c-1.309,1.31-1.309,3.427,0,4.737
		c1.309,1.309,3.427,1.309,4.736,0l29.024-29.023c1.306-1.306,3.414-1.306,4.715-0.005c1.235,1.234,1.235,3.231,0.002,4.461
		c-7.345,7.346-30.336,30.338-31.313,31.314c-9.57,9.571-17.972,11.561-25.193,9.208c-5.824-1.893-12.227-0.023-16.118,4.71
		l-17.137,20.856C37.067,132.098,52.344,138,69,138c38.107,0,69-30.893,69-69S107.107,0,69,0z"/>
</g>
</symbol><symbol id="twitter-icon" viewBox="0 0 39.723 39.723">
<g>
	<path d="M19.859,0C8.91,0,0,8.911,0,19.86c0,10.953,8.91,19.863,19.859,19.863c10.953,0,19.864-8.91,19.864-19.863
		C39.723,8.911,30.812,0,19.859,0L19.859,0z M28.723,15.317c0.007,0.195,0.011,0.394,0.011,0.594
		c0,6.039-4.597,13.003-13.007,13.003c-2.582,0-4.985-0.753-7.008-2.054c0.359,0.043,0.722,0.066,1.09,0.066
		c2.144,0,4.113-0.73,5.679-1.957c-2-0.039-3.687-1.359-4.269-3.176c0.277,0.055,0.562,0.082,0.859,0.082
		c0.414,0,0.82-0.054,1.203-0.16c-2.09-0.418-3.668-2.265-3.668-4.48c0-0.02,0-0.039,0.004-0.059
		c0.613,0.344,1.321,0.547,2.071,0.57c-1.227-0.816-2.036-2.218-2.036-3.804c0-0.836,0.227-1.621,0.618-2.297
		c2.253,2.766,5.625,4.586,9.421,4.777c-0.078-0.336-0.117-0.683-0.117-1.043c0-2.523,2.047-4.57,4.571-4.57
		c1.316,0,2.503,0.555,3.335,1.441c1.043-0.203,2.024-0.582,2.907-1.109c-0.344,1.07-1.067,1.965-2.012,2.531
		c0.926-0.109,1.809-0.355,2.625-0.718C30.391,13.868,29.613,14.672,28.723,15.317L28.723,15.317z M28.723,15.317"/>
</g>
</symbol></svg>