<svg xmlns="http://www.w3.org/2000/svg" xml:space="preserve" width="39.723" height="39.723"><path d="M19.859 0C8.91 0 0 8.911 0 19.86c0 10.953 8.91 19.863 19.859 19.863 10.953 0 19.864-8.91 19.864-19.863C39.723 8.911 30.812 0 19.859 0m8.864 15.317q.01.293.011.594c0 6.039-4.597 13.003-13.007 13.003-2.582 0-4.985-.753-7.008-2.054q.538.065 1.09.066a9.17 9.17 0 0 0 5.679-1.957 4.58 4.58 0 0 1-4.269-3.176q.415.082.859.082c.414 0 .82-.054 1.203-.16a4.57 4.57 0 0 1-3.668-4.48q-.001-.03.004-.059a4.5 4.5 0 0 0 2.071.57 4.577 4.577 0 0 1-1.418-6.101 12.98 12.98 0 0 0 9.421 4.777 4.6 4.6 0 0 1-.117-1.043 4.571 4.571 0 0 1 7.906-3.129 9 9 0 0 0 2.907-1.109 4.6 4.6 0 0 1-2.012 2.531A9 9 0 0 0 31 12.954a9.3 9.3 0 0 1-2.277 2.363m0 0"/></svg>