<?xml version="1.0" encoding="utf-8"?>
<!-- Generator: Adobe Illustrator 17.0.0, SVG Export Plug-In . SVG Version: 6.00 Build 0)  -->
<!DOCTYPE svg PUBLIC "-//W3C//DTD SVG 1.1//EN" "http://www.w3.org/Graphics/SVG/1.1/DTD/svg11.dtd">
<svg version="1.1" id="Layer_1" xmlns="http://www.w3.org/2000/svg" xmlns:xlink="http://www.w3.org/1999/xlink" x="0px" y="0px"
	 width="39.723px" height="39.723px" viewBox="0 0 39.723 39.723" enable-background="new 0 0 39.723 39.723" xml:space="preserve">
<g>
	<path d="M19.859,23.836c2.192,0,3.977-1.781,3.977-3.976c0-0.864-0.281-1.664-0.75-2.317c-0.723-1-1.898-1.656-3.227-1.656
		c-1.324,0-2.5,0.652-3.222,1.656c-0.473,0.653-0.75,1.453-0.754,2.317C15.883,22.055,17.668,23.836,19.859,23.836L19.859,23.836z
		 M19.859,23.836"/>
	<path d="M28.543,14.996v-3.828h-0.5l-3.332,0.012l0.016,3.828L28.543,14.996z M28.543,14.996"/>
	<path d="M19.859,0C8.91,0,0,8.911,0,19.86c0,10.953,8.91,19.863,19.859,19.863c10.953,0,19.864-8.91,19.864-19.863
		C39.723,8.911,30.812,0,19.859,0L19.859,0z M31.156,17.543v9.25c0,2.407-1.957,4.364-4.367,4.364H12.93
		c-2.407,0-4.364-1.957-4.364-4.364V12.934c0-2.41,1.957-4.367,4.364-4.367h13.859c2.41,0,4.367,1.957,4.367,4.367V17.543z
		 M31.156,17.543"/>
	<path d="M26.039,19.86c0,3.406-2.769,6.179-6.18,6.179c-3.406,0-6.175-2.773-6.175-6.179c0-0.817,0.164-1.602,0.453-2.317h-3.371
		v9.25c0,1.196,0.968,2.161,2.164,2.161h13.859c1.195,0,2.164-0.965,2.164-2.161v-9.25h-3.371
		C25.871,18.258,26.039,19.043,26.039,19.86L26.039,19.86z M26.039,19.86"/>
</g>
</svg>
